<svg width="1036" height="813" viewBox="0 0 1036 813" fill="none" xmlns="http://www.w3.org/2000/svg">
<mask id="mask0_2_774" style="mask-type:alpha" maskUnits="userSpaceOnUse" x="272" y="254" width="519" height="559">
<path d="M340.486 255.914L752.8 354.294C776.742 360.007 792.731 382.595 790.16 407.074L751.494 775.245C749.071 798.314 728.406 815.051 705.337 812.628C705.084 812.602 704.831 812.573 704.579 812.542L309.204 763.743C287.862 761.109 271.957 742.781 272.356 721.281L280.122 302.667C280.624 275.61 302.966 254.083 330.023 254.585C333.548 254.65 337.056 255.096 340.486 255.914Z" fill="white"/>
</mask>
<g mask="url(#mask0_2_774)">
<path d="M340.486 255.914L752.8 354.294C776.742 360.007 792.731 382.595 790.16 407.074L751.494 775.245C749.071 798.314 728.406 815.051 705.337 812.628C705.084 812.602 704.831 812.573 704.579 812.542L309.204 763.743C287.862 761.109 271.957 742.781 272.356 721.281L280.122 302.667C280.624 275.61 302.966 254.083 330.023 254.585C333.548 254.65 337.056 255.096 340.486 255.914Z" fill="#F2FF9E"/>
<path fill-rule="evenodd" clip-rule="evenodd" d="M271.654 703.724L516.649 529.781L602.649 595.781L484.149 798.281L278.154 778.781C274.796 756.716 272.63 740.05 271.654 728.781C270.678 717.512 270.678 709.16 271.654 703.724Z" fill="#CEDF62"/>
</g>
<path d="M505.154 296.708C505.157 296.844 505.15 296.982 505.131 297.122L494.072 377.337C499.894 379.033 504.149 384.41 504.149 390.78C504.149 398.466 497.956 404.705 490.288 404.78L483.572 453.493C489.137 455.345 493.149 460.594 493.149 466.78C493.149 474.29 487.236 480.419 479.812 480.765L467.631 569.122C467.442 570.489 466.181 571.445 464.813 571.257C463.445 571.068 462.489 569.807 462.678 568.439L474.855 480.11C469.224 478.297 465.149 473.014 465.149 466.78C465.149 459.225 471.134 453.067 478.622 452.79L485.357 403.939C479.985 401.982 476.149 396.829 476.149 390.78C476.149 383.403 481.856 377.358 489.096 376.819L500.178 296.439C500.193 296.329 500.215 296.223 500.243 296.119L359.154 348.28L448.654 281.28L551.654 305.78L593.654 396.78L505.154 296.708ZM714.272 488.596L719.026 490.147L618.281 799.055L613.528 797.505L714.272 488.596ZM393.654 618.78L273.154 702.78L280.154 296.78L300.963 353.478L393.654 618.78Z" fill="#B1BF58"/>
<mask id="mask1_2_774" style="mask-type:alpha" maskUnits="userSpaceOnUse" x="470" y="8" width="215" height="301">
<path d="M577.735 246.326L577.694 308.047L472.091 302.298L471.024 174.067C470.646 170.872 470.451 167.622 470.451 164.326V90.146C470.451 44.8586 507.164 8.146 552.451 8.146H602.81C648.097 8.146 684.81 44.8586 684.81 90.146V164.326C684.81 209.613 648.097 246.326 602.81 246.326H577.735Z" fill="white"/>
</mask>
<g mask="url(#mask1_2_774)">
<path d="M562.411 245.003L551.654 305.78L448.654 281.78L469.869 155.312C470.052 152.1 470.425 148.865 470.997 145.619L483.878 72.5667C491.742 27.9674 534.272 -1.81242 578.871 6.05165L628.465 14.7964C673.065 22.6605 702.844 65.1904 694.98 109.79L682.099 182.842C674.235 227.442 631.705 257.222 587.106 249.358L562.411 245.003Z" fill="#81A6FF"/>
</g>
<mask id="mask2_2_774" style="mask-type:alpha" maskUnits="userSpaceOnUse" x="470" y="8" width="215" height="301">
<path d="M577.348 246.293L577.307 308.015L471.705 302.266L470.637 174.034C470.259 170.84 470.064 167.589 470.064 164.293V90.1138C470.064 44.8264 506.777 8.11377 552.064 8.11377H602.423C647.711 8.11377 684.423 44.8264 684.423 90.1138V164.293C684.423 209.581 647.711 246.293 602.423 246.293H577.348Z" fill="white"/>
</mask>
<g mask="url(#mask2_2_774)">
<path d="M562.026 244.971L551.268 305.748L448.268 281.748L469.483 155.28C469.666 152.068 470.039 148.833 470.611 145.587L483.492 72.5345C491.356 27.9352 533.886 -1.84464 578.486 6.01942L628.08 14.7642C672.679 22.6282 702.459 65.1582 694.595 109.758L681.713 182.81C673.849 227.41 631.319 257.189 586.72 249.325L562.026 244.971Z" fill="#FF8181"/>
<path fill-rule="evenodd" clip-rule="evenodd" d="M483.654 88.2803L680.154 16.7803L565.475 -8.21973L474.654 9.20631L483.654 88.2803Z" fill="#383838"/>
</g>
<path d="M441.439 36.65L435.57 35.4025C406.398 29.2019 377.723 47.8236 371.523 76.9953L370.275 82.8642C364.075 112.036 382.696 140.711 411.868 146.911L417.737 148.159C446.909 154.359 475.583 135.738 481.784 106.566L483.032 100.697C489.232 71.5255 470.611 42.8506 441.439 36.65Z" fill="#383838"/>
<path fill-rule="evenodd" clip-rule="evenodd" d="M587.654 197.28L604.848 211.036C608.331 213.822 612.45 215.702 616.837 216.508L628.748 218.696C632.556 219.395 636.488 218.69 639.816 216.711L653.154 208.78L643.1 198.726C641.254 196.88 638.623 196.051 636.052 196.504L631.654 197.28L623.279 192.331C621.588 191.332 619.59 190.99 617.663 191.37L587.654 197.28Z" fill="#383838"/>
<path d="M693.154 115.78C679.071 110.851 663.826 112.613 646.402 119.335" stroke="#4F72C5" stroke-width="3" stroke-linecap="round" stroke-linejoin="round"/>
<path fill-rule="evenodd" clip-rule="evenodd" d="M615.215 182.617L647.646 188.905C650.357 189.431 652.981 187.659 653.507 184.948C653.654 184.186 653.623 183.4 653.414 182.653C649.639 169.123 647.588 158.589 647.261 151.05C646.873 142.116 645.206 138.45 642.261 140.05L643.654 116.08L641.154 116.08C629.395 144.901 622.893 161.401 621.649 165.58C620.875 168.18 610.334 169.391 609.261 174.55C609.063 175.499 609.367 176.862 610.173 178.637C611.11 180.702 612.989 182.185 615.215 182.617Z" fill="#C55858"/>
<path d="M737.629 295.094L720.549 291.774L674.742 527.429L691.822 530.749L737.629 295.094Z" fill="#8C8C8C"/>
<path d="M716.176 369.493L712.569 368.792C701.184 366.579 690.161 374.014 687.948 385.399L661.555 521.178C659.342 532.563 666.778 543.587 678.162 545.8L681.769 546.501C693.154 548.714 704.177 541.278 706.39 529.893L732.783 394.114C734.996 382.729 727.56 371.706 716.176 369.493Z" fill="#383838"/>
<path fill-rule="evenodd" clip-rule="evenodd" d="M733.294 261.516L736.9 262.217C748.285 264.43 755.72 275.454 753.507 286.838L749.917 305.311C748.855 310.772 744.179 314.787 738.62 315.011C733.534 315.216 729.21 314.973 725.649 314.28C721.922 313.556 717.395 312.022 712.067 309.679C706.934 307.421 704.049 301.909 705.119 296.405L708.673 278.123C710.886 266.739 721.909 259.303 733.294 261.516Z" fill="#383838"/>
<path fill-rule="evenodd" clip-rule="evenodd" d="M645.293 242.16C624.148 208.322 622.683 168.624 634.149 133.78C642.996 106.895 658.666 82.8784 684.383 66.8084C704.515 54.2284 725.944 49.4262 747.649 48.7805C760.666 48.3932 773.943 48.2986 786.649 52.2805C799.468 56.2979 816.115 63.9998 827.649 72.2805C841.532 82.2467 849.824 93.6593 859.124 108.543C870.654 126.994 876.642 147.567 878.149 167.78C878.948 178.488 877.081 192.707 875.149 202.78C872.232 217.996 867.58 228.644 859.149 242.28C849.465 257.944 836.738 273.457 820.034 283.895C807.417 291.779 794.181 297.537 780.649 300.28C760.597 304.346 739.95 302.489 720.149 296.78C706.96 292.978 691.943 286.483 680.149 278.78C665.679 269.33 654.986 257.673 645.293 242.16ZM660.031 233.273C692.033 284.488 759.169 300.265 809.984 268.513C860.798 236.761 876.048 169.503 844.046 118.288C812.043 67.074 744.907 51.2968 694.093 83.049C643.279 114.801 628.029 182.059 660.031 233.273Z" fill="#898989"/>
<mask id="mask3_2_774" style="mask-type:alpha" maskUnits="userSpaceOnUse" x="640" y="65" width="223" height="220">
<path d="M751.477 284.856C775.838 284.856 798.632 275.97 816.83 262.354C821.266 259.035 825.784 255.942 829.708 252.124C844.036 238.183 853.9 220.756 859.031 201.359C861.225 193.066 862.399 184.315 862.399 175.143C862.399 125.154 827.478 85.3208 781.249 72.0882C771.443 69.2811 762.198 65.4297 751.477 65.4297C716.301 65.4297 686.246 83.2466 665.925 108.51C650.856 127.244 640.555 149.343 640.555 175.143C640.555 196.185 647.549 215.938 657.934 232.636C677.451 264.022 711.491 284.856 751.477 284.856Z" fill="white"/>
</mask>
<g mask="url(#mask3_2_774)">
<path d="M658.435 233.282C671.345 253.942 690.959 268.563 712.149 276.781C717.315 278.784 722.332 280.976 727.649 282.281C747.065 287.044 767.071 286.174 786.239 280.246C794.435 277.712 802.478 274.07 810.257 269.21C852.65 242.72 867.925 191.997 854.649 145.781C851.833 135.977 850.2 126.096 844.519 117.004C825.878 87.1727 794.843 71.1266 762.649 67.2807C738.777 64.4288 714.577 67.4036 692.697 81.0756C674.852 92.2265 661.808 108.625 653.149 126.281C636.876 159.465 637.246 199.372 658.435 233.282Z" fill="white"/>
<path opacity="0.65332" fill-rule="evenodd" clip-rule="evenodd" d="M771.704 157.516C766.929 155.496 763.343 154.388 758.045 153.262C752.528 152.089 747.209 151.865 741.754 151.803C735.388 151.73 729.292 152.895 723.011 154.334C717.671 155.558 709.654 158.463 698.96 163.05C706.169 171.342 711.831 177.083 715.946 180.274C722.227 185.144 728.164 189.761 735.494 192.593C738.518 193.761 742.183 195.051 745.682 196.03L688.123 281.22L642.414 217.719L806.908 45.2101L832.234 67.9282L771.704 157.516ZM789.061 167.404C786.767 165.696 784.296 164.071 781.745 162.572L840.316 77.3098L846.64 79.2432L789.061 167.404ZM768.875 198.311L703.715 298.081L698.135 284.283L757.342 198.095C758.928 198.23 760.522 198.326 762.163 198.413C764.405 198.533 766.643 198.488 768.875 198.311Z" fill="#E0E0E0"/>
<path d="M771.895 200.756C768.527 201.133 765.343 201.216 762.097 201.013C758.17 200.768 755.303 200.508 752.612 200.089L747.751 224.632C747.486 225.968 746.169 226.819 744.808 226.531C743.448 226.243 742.559 224.927 742.824 223.59L747.673 199.108C743.767 198.158 739.123 196.615 734.496 194.812C732.434 194.009 730.456 193.079 728.453 191.977L713.975 204.161C712.931 205.04 711.346 204.903 710.434 203.856C709.522 202.808 709.63 201.247 710.674 200.368L723.916 189.225C722.5 188.292 721.037 187.266 719.493 186.132C717.999 185.034 716.873 184.178 714.118 182.059C709.796 178.736 703.957 172.895 696.54 164.5C695.412 163.222 695.85 161.255 697.406 160.61C708.223 156.123 716.363 153.284 721.892 152.087C729.965 150.339 735.445 149.588 741.27 149.712C748.337 149.862 753.096 150.275 758.131 151.379C763.746 152.61 767.543 153.817 772.617 155.992C778.812 158.647 785.102 162.231 790.417 166.161C795.075 169.606 801.732 176.003 810.459 185.397C811.626 186.654 811.227 188.645 809.672 189.319C801.646 192.801 795.617 195.14 791.545 196.346C786.003 197.987 781.299 199.196 777.022 199.987L783.487 213.797C784.072 215.047 783.528 216.509 782.272 217.062C781.016 217.615 779.523 217.049 778.937 215.799L771.895 200.756ZM790.015 191.601C793.314 190.624 798.116 188.804 804.394 186.145C797.042 178.36 791.379 173.001 787.458 170.102C782.468 166.412 776.526 163.026 770.693 160.526C765.923 158.481 762.437 157.373 757.135 156.211C752.492 155.193 748.024 154.806 741.261 154.662C735.919 154.548 730.78 155.252 723.06 156.924C718.423 157.928 711.589 160.248 702.606 163.878C708.727 170.661 713.59 175.437 717.155 178.178C719.879 180.273 720.986 181.115 722.439 182.182C727.637 186 731.769 188.463 736.26 190.212C741.153 192.119 746.063 193.72 749.897 194.56C753.557 195.362 756.811 195.728 762.315 196.072C770.264 196.568 778.024 195.152 790.015 191.601ZM752.003 185.578C748.874 184.892 745.37 181.434 743.923 178.718C742.693 176.41 742.913 173.942 743.492 171.135C744.076 168.298 745.49 166.248 747.557 164.654C749.942 162.816 753.151 161.691 756.251 162.37C759.779 163.143 764.395 164.804 765.713 168.039C766.558 170.113 767.463 174.196 766.972 176.582C766.492 178.907 764.577 181.237 763.049 182.763C760.562 185.247 755.589 186.364 752.003 185.578Z" fill="#383838"/>
</g>
<path fill-rule="evenodd" clip-rule="evenodd" d="M544.333 116.302C546.795 128.642 556.918 137.677 574.701 143.405C592.484 149.133 605.91 147.405 614.979 138.222C608.426 123.506 599.021 114.228 586.764 110.386C574.506 106.545 560.363 108.517 544.333 116.302Z" fill="white"/>
<path fill-rule="evenodd" clip-rule="evenodd" d="M590.491 137.758C593.392 137.96 596.247 136.574 597.95 134.198C598.995 132.738 599.494 130.865 599.633 128.874C599.776 126.829 599.584 124.984 598.707 123.367C597.339 120.844 594.67 119.003 591.816 118.804C589.308 118.628 586.792 119.229 585.104 121.055C583.641 122.639 582.844 125.257 582.674 127.688C582.506 130.092 582.954 132.831 584.158 134.594C585.574 136.669 587.959 137.581 590.491 137.758Z" fill="#383838"/>
<path fill-rule="evenodd" clip-rule="evenodd" d="M543.907 116.38C563.699 118.351 579.036 121.001 589.919 124.329C600.802 127.658 609.347 132.312 615.553 138.291C612.616 123.212 602.887 113.292 586.367 108.532C569.847 103.771 555.693 106.387 543.907 116.38Z" fill="#C55858"/>
<path fill-rule="evenodd" clip-rule="evenodd" d="M620.97 133.344L575.148 92.2803L578.148 76.7803L634.148 129.28C633.084 133.594 628.725 136.228 624.412 135.164C623.133 134.848 621.951 134.223 620.97 133.344Z" fill="#383838"/>
<path fill-rule="evenodd" clip-rule="evenodd" d="M448.654 281.28L427.325 215.811C418.204 187.816 424.221 157.096 443.227 134.61L483.654 86.7803L448.654 281.28Z" fill="#383838"/>
<mask id="mask4_2_774" style="mask-type:alpha" maskUnits="userSpaceOnUse" x="517" y="374" width="258" height="219">
<path d="M517.644 532.425L673.356 389.515C677.806 385.431 683.253 382.591 689.149 381.281L686.149 394.281L740.588 375.663C747.648 373.249 755.361 376.795 758.124 383.727C758.665 385.086 759.321 386.534 760.09 388.07C765.492 398.855 765.492 408.603 760.09 417.314C767.985 419.803 772.555 425.818 773.802 435.358C775.048 444.899 772.763 452.366 766.946 457.758C776.346 475.276 769.765 497.096 752.248 506.496C751.255 507.029 750.238 507.515 749.2 507.952L745.755 509.403L622.351 550.469L598.667 592.781L517.644 532.425Z" fill="white"/>
</mask>
<g mask="url(#mask4_2_774)">
<path d="M517.644 532.425L673.356 389.515C677.806 385.431 683.253 382.591 689.149 381.281L686.149 394.281L740.588 375.663C747.648 373.249 755.361 376.795 758.124 383.727C758.665 385.086 759.321 386.534 760.09 388.07C765.492 398.855 765.492 408.603 760.09 417.314C767.985 419.803 772.555 425.818 773.802 435.358C775.048 444.899 772.763 452.366 766.946 457.758C776.346 475.276 769.765 497.096 752.248 506.496C751.255 507.029 750.238 507.515 749.2 507.952L745.755 509.403L622.351 550.469L598.667 592.781L517.644 532.425Z" fill="#FF8181"/>
<path fill-rule="evenodd" clip-rule="evenodd" d="M690.149 392.781L652.644 408.781C660.242 397.704 666.911 389.871 672.649 385.281C678.387 380.691 685.054 377.858 692.649 376.781L690.149 392.781Z" fill="#C55858"/>
<path d="M765.746 457.579C766.41 457.083 767.35 457.22 767.846 457.883C768.341 458.547 768.205 459.487 767.541 459.983C763.215 463.213 758.041 465.627 752.03 467.23C751.23 467.444 750.408 466.968 750.194 466.167C749.981 465.367 750.457 464.545 751.257 464.331C756.912 462.823 761.739 460.571 765.746 457.579ZM758.284 416.491C758.957 416.008 759.895 416.163 760.377 416.837C760.859 417.51 760.704 418.447 760.031 418.929C755.541 422.146 750.248 424.451 744.164 425.847C743.357 426.032 742.552 425.528 742.366 424.72C742.181 423.913 742.686 423.108 743.493 422.923C749.201 421.613 754.128 419.468 758.284 416.491Z" fill="#C55858"/>
</g>
<path fill-rule="evenodd" clip-rule="evenodd" d="M474.654 157.78C495.089 157.78 511.654 141.886 511.654 122.28C511.654 102.674 495.089 86.7803 474.654 86.7803C454.22 86.7803 437.654 102.674 437.654 122.28C437.654 137.604 447.774 150.66 461.951 155.633C465.912 157.022 470.191 157.78 474.654 157.78Z" fill="#FF8181"/>
<mask id="mask5_2_774" style="mask-type:alpha" maskUnits="userSpaceOnUse" x="434" y="148" width="59" height="75">
<path d="M453.197 151.259C456.112 153.043 459.268 154.66 462.751 155.956C460.055 156.45 457.462 157.692 455.304 159.695C444.176 170.026 439.641 185.644 443.504 200.328L444.142 202.752C444.654 204.697 445.523 206.53 446.705 208.158C451.972 215.41 462.12 217.02 469.372 211.753L470.001 211.297C482.883 201.941 487.635 184.951 481.473 170.27L479.2 164.853C478.523 163.241 477.568 161.76 476.378 160.478C474.794 158.772 472.904 157.52 470.871 156.728C471.756 152.535 472.311 149.902 472.535 148.831C476.13 149.996 479.487 152.069 482.241 155.035C484.069 157.004 485.537 159.28 486.576 161.757L488.85 167.174C496.448 185.279 490.589 206.233 474.702 217.77L474.073 218.227C463.246 226.089 448.095 223.686 440.232 212.859C438.467 210.429 437.17 207.692 436.406 204.787L435.768 202.363C431.153 184.825 436.57 166.171 449.861 153.832C450.912 152.857 452.029 152 453.197 151.259Z" fill="white"/>
</mask>
<g mask="url(#mask5_2_774)">
<path d="M453.197 151.259C456.112 153.043 459.268 154.66 462.751 155.956C460.055 156.45 457.462 157.692 455.304 159.695C444.176 170.026 439.641 185.644 443.504 200.328L444.142 202.752C444.654 204.697 445.523 206.53 446.705 208.158C451.972 215.41 462.12 217.02 469.372 211.753L470.001 211.297C482.883 201.941 487.635 184.951 481.473 170.27L479.2 164.853C478.523 163.241 477.568 161.76 476.378 160.478C474.794 158.772 472.904 157.52 470.871 156.728C471.756 152.535 472.311 149.902 472.535 148.831C476.13 149.996 479.487 152.069 482.241 155.035C484.069 157.004 485.537 159.28 486.576 161.757L488.85 167.174C496.448 185.279 490.589 206.233 474.702 217.77L474.073 218.227C463.246 226.089 448.095 223.686 440.232 212.859C438.467 210.429 437.17 207.692 436.406 204.787L435.768 202.363C431.153 184.825 436.57 166.171 449.861 153.832C450.912 152.857 452.029 152 453.197 151.259Z" fill="#F2FF9E"/>
<path fill-rule="evenodd" clip-rule="evenodd" d="M438.148 133.78L474.648 130.28L456.148 245.78L423.648 237.78L438.148 133.78Z" fill="#CEDF62"/>
</g>
<path fill-rule="evenodd" clip-rule="evenodd" d="M233.129 63.7803V139.204L302.148 123.257L238.305 160.323L302.148 182.734L233.129 174.545L238.305 241.78L211.56 180.148L174.462 229.712L198.619 169.804C150.305 153.427 126.148 145.238 126.148 145.238C126.148 145.238 150.305 146.244 198.619 148.255L174.462 95.2427L211.56 134.463L233.129 63.7803ZM905.912 508.576L902.452 409.484L828.54 442.934L887.912 384.764L814.995 331.013L900.831 363.052L890.964 274.955L928.83 354.704L975.156 287.889L946.258 367.702C1005.79 370.644 1035.56 372.115 1035.56 372.115C1035.56 372.115 1006.12 380.081 947.246 396.014L981.325 464.556L930.926 414.725L905.912 508.576Z" fill="#383838"/>
<path fill-rule="evenodd" clip-rule="evenodd" d="M133.027 433.754L151.991 480.735L115.253 475.895L151.026 493.681C124.345 513.513 111.004 523.428 111.004 523.428C111.004 523.428 127.443 517.339 160.321 505.159L173.254 547.521L171.697 505.069L212.57 526.326L180.804 492.753L221.212 467.253L177.435 482.938L195.558 435.573L165.56 473.929L133.027 433.754Z" fill="#383838"/>
<path d="M152.807 589.271C207.754 574.548 240.362 518.069 225.639 463.122C210.916 408.175 154.437 375.567 99.4904 390.29C44.5433 405.013 11.9354 461.492 26.6584 516.439C41.3814 571.386 97.8601 603.994 152.807 589.271Z" fill="#383838"/>
<path d="M100.02 502.504L102.459 511.607L94.0745 513.854L95.9038 520.681L85.1241 523.57L83.2947 516.742L53.7104 524.669L51.2713 515.567L73.8913 481.648L84.6711 478.76L91.6354 504.751L100.02 502.504ZM62.8894 512.453L80.8556 507.639L76.7798 492.428L62.8894 512.453ZM131.817 511.7C115.168 516.161 105.209 510.614 101.47 496.66C97.7475 482.766 103.615 473.042 120.263 468.581C136.852 464.136 146.871 469.668 150.578 483.502C154.301 497.395 148.406 507.255 131.817 511.7ZM129.394 502.657C138.856 500.122 141.9 494.235 139.798 486.39C137.712 478.605 132.149 475.089 122.686 477.624C113.224 480.16 110.148 485.926 112.25 493.771C114.368 501.677 119.932 505.192 129.394 502.657ZM204.224 474.583L206.663 483.686L198.279 485.933L200.108 492.76L189.328 495.648L187.499 488.821L157.914 496.748L155.475 487.645L178.095 453.727L188.875 450.839L195.839 476.83L204.224 474.583ZM167.093 484.532L185.06 479.718L180.984 464.507L167.093 484.532Z" fill="white"/>
<path fill-rule="evenodd" clip-rule="evenodd" d="M582.474 159.704C580.321 159.207 579.776 157.395 580.148 155.781C580.521 154.166 581.671 153.361 583.823 153.858C585.976 154.354 586.521 156.166 586.148 157.781C585.776 159.395 584.626 160.201 582.474 159.704ZM603.474 158.704C601.321 158.207 600.776 157.395 601.148 155.781C601.521 154.166 602.671 152.361 604.823 152.858C606.976 153.354 607.521 155.166 607.148 156.781C606.776 158.395 605.626 159.201 603.474 158.704ZM594.474 169.704C592.321 169.207 591.776 167.395 592.148 165.781C592.521 164.166 593.671 163.361 595.823 163.858C597.976 164.354 598.521 165.666 598.148 167.281C597.776 168.895 596.626 170.201 594.474 169.704ZM574.474 172.704C572.321 172.207 571.276 171.395 571.648 169.781C572.021 168.166 573.671 166.361 575.823 166.858C577.976 167.354 578.021 168.666 577.648 170.281C577.276 171.895 576.626 173.201 574.474 172.704ZM560.474 155.704C558.321 155.207 557.276 153.895 557.648 152.281C558.021 150.666 559.671 149.361 561.823 149.858C563.976 150.354 564.521 152.666 564.148 154.281C563.776 155.895 562.626 156.201 560.474 155.704Z" fill="#C55858"/>
</svg>
